<?xml version="1.0" encoding="UTF-8"?>
<svg id="Capa_2" data-name="Capa 2" xmlns="http://www.w3.org/2000/svg" viewBox="0 0 60 41">
  <defs>
    <style>
      .cls-1 {
        fill: #000;
      }

      .cls-1, .cls-2 {
        stroke-width: 0px;
      }

      .cls-2 {
        fill: #a1d9d9;
      }
    </style>
  </defs>
  <g id="Capa_1-2" data-name="Capa 1">
    <g id="Silla-ocupada">
      <g>
        <rect class="cls-2" x="48.5" y="6.5" width="11" height="29" rx="1.5" ry="1.5"/>
        <path class="cls-1" d="M58,7c.55,0,1,.45,1,1v26c0,.55-.45,1-1,1h-8c-.55,0-1-.45-1-1V8c0-.55.45-1,1-1h8M58,6h-8c-1.1,0-2,.9-2,2v26c0,1.1.9,2,2,2h8c1.1,0,2-.9,2-2V8c0-1.1-.9-2-2-2h0Z"/>
      </g>
      <g>
        <rect class="cls-2" x=".5" y="5.5" width="11" height="29" rx="1.5" ry="1.5"/>
        <path class="cls-1" d="M10,6c.55,0,1,.45,1,1v26c0,.55-.45,1-1,1H2c-.55,0-1-.45-1-1V7c0-.55.45-1,1-1h8M10,5H2c-1.1,0-2,.9-2,2v26c0,1.1.9,2,2,2h8c1.1,0,2-.9,2-2V7c0-1.1-.9-2-2-2h0Z"/>
      </g>
      <g>
        <path class="cls-2" d="M13,28.5c-.83,0-1.5-.67-1.5-1.5V4c0-1.93,1.57-3.5,3.5-3.5h30c1.93,0,3.5,1.57,3.5,3.5v23c0,.83-.67,1.5-1.5,1.5H13Z"/>
        <path class="cls-1" d="M45,1c1.65,0,3,1.35,3,3v23c0,.55-.45,1-1,1H13c-.55,0-1-.45-1-1V4c0-1.65,1.35-3,3-3h30M45,0H15c-2.21,0-4,1.79-4,4v23c0,1.1.9,2,2,2h34c1.1,0,2-.9,2-2V4c0-2.21-1.79-4-4-4h0Z"/>
      </g>
      <g>
        <path class="cls-2" d="M16,40.5c-2.48,0-4.5-2.02-4.5-4.5v-6c0-.83.67-1.5,1.5-1.5h34c.83,0,1.5.67,1.5,1.5v6c0,2.48-2.02,4.5-4.5,4.5h-28Z"/>
        <path class="cls-1" d="M47,29c.55,0,1,.45,1,1v6c0,2.21-1.79,4-4,4h-28c-2.21,0-4-1.79-4-4v-6c0-.55.45-1,1-1h34M47,28H13c-1.1,0-2,.9-2,2v6c0,2.76,2.24,5,5,5h28c2.76,0,5-2.24,5-5v-6c0-1.1-.9-2-2-2h0Z"/>
      </g>
    </g>
  </g>
</svg>